<!DOCTYPE svg PUBLIC "-//W3C//DTD SVG 1.1//EN" "http://www.w3.org/Graphics/SVG/1.1/DTD/svg11.dtd">
<!-- Uploaded to: SVG Repo, www.svgrepo.com, Transformed by: SVG Repo Mixer Tools -->
<svg width="800px" height="800px" viewBox="0 0 24 24" xmlns="http://www.w3.org/2000/svg" fill="#fff" stroke="#fff">
<g id="SVGRepo_bgCarrier" stroke-width="0"/>
<g id="SVGRepo_tracerCarrier" stroke-linecap="round" stroke-linejoin="round"/>
<g id="SVGRepo_iconCarrier"> <g> <path fill="none" d="M0 0h24v24H0z"/> <path d="M3 7l8.445-5.63a1 1 0 0 1 1.11 0L21 7v14a1 1 0 0 1-1 1H4a1 1 0 0 1-1-1V7zm2 1.07V20h14V8.07l-7-4.666L5 8.07zM8 16h8v2H8v-2zm0-3h8v2H8v-2zm4-2a2 2 0 1 1 0-4 2 2 0 0 1 0 4z"/> </g> </g>
</svg>